<svg width="278" height="210" viewBox="0 0 278 210" fill="none" xmlns="http://www.w3.org/2000/svg">
<path d="M167.473 135.668C161.082 139.844 159.286 148.411 163.462 154.802C167.637 161.193 176.203 162.989 182.594 158.813L233.092 125.816C239.483 121.64 241.279 113.074 237.103 106.682C232.928 100.291 224.362 98.4954 217.971 102.671L167.473 135.668Z" fill="#FE9898"/>
<path d="M58.5141 102.677C52.1233 98.5009 43.5576 100.297 39.3819 106.688C35.2063 113.079 37.002 121.645 43.3928 125.821L93.8912 158.819C100.282 162.995 108.848 161.199 113.023 154.808C117.199 148.416 115.403 139.85 109.013 135.674L58.5141 102.677Z" fill="#FE9898"/>
<path d="M153.238 114.421H122.646V147.066H153.238V114.421Z" fill="#FFDF4D"/>
<path d="M180.497 70.4172H95.5974C87.8138 70.4172 81.5039 76.7275 81.5039 84.5117C81.5039 92.2958 87.8138 98.6061 95.5974 98.6061H180.497C188.28 98.6061 194.59 92.2958 194.59 84.5117C194.59 76.7275 188.28 70.4172 180.497 70.4172Z" fill="#6FA7FF"/>
<path d="M137.876 129.023C162.457 129.023 182.384 109.095 182.384 84.5116C182.384 59.9285 162.457 40 137.876 40C113.294 40 93.3672 59.9285 93.3672 84.5116C93.3672 109.095 113.294 129.023 137.876 129.023Z" fill="#D9E0E2"/>
<path opacity="0.3" d="M104.609 90.14C113.829 90.14 121.303 82.6653 121.303 73.4447C121.303 64.2242 113.829 56.7495 104.609 56.7495C95.3892 56.7495 87.915 64.2242 87.915 73.4447C87.915 82.6653 95.3892 90.14 104.609 90.14Z" fill="#FFF5CE"/>
<path opacity="0.3" d="M104.611 86.0558C111.576 86.0558 117.222 80.4096 117.222 73.4447C117.222 66.4797 111.576 60.8335 104.611 60.8335C97.6468 60.8335 92.001 66.4797 92.001 73.4447C92.001 80.4096 97.6468 86.0558 104.611 86.0558Z" fill="#FFF7A5"/>
<path opacity="0.3" d="M104.611 82.3511C109.529 82.3511 113.517 78.3636 113.517 73.4447C113.517 68.5259 109.529 64.5383 104.611 64.5383C99.6923 64.5383 95.7051 68.5259 95.7051 73.4447C95.7051 78.3636 99.6923 82.3511 104.611 82.3511Z" fill="#FFE22E"/>
<path opacity="0.3" d="M171.151 90.14C180.371 90.14 187.845 82.6653 187.845 73.4447C187.845 64.2242 180.371 56.7495 171.151 56.7495C161.931 56.7495 154.457 64.2242 154.457 73.4447C154.457 82.6653 161.931 90.14 171.151 90.14Z" fill="#FFF5CE"/>
<path opacity="0.3" d="M171.151 86.0558C178.116 86.0558 183.762 80.4096 183.762 73.4447C183.762 66.4797 178.116 60.8335 171.151 60.8335C164.187 60.8335 158.541 66.4797 158.541 73.4447C158.541 80.4096 164.187 86.0558 171.151 86.0558Z" fill="#FFF7A5"/>
<path opacity="0.3" d="M171.149 82.3511C176.067 82.3511 180.055 78.3636 180.055 73.4447C180.055 68.5259 176.067 64.5383 171.149 64.5383C166.23 64.5383 162.243 68.5259 162.243 73.4447C162.243 78.3636 166.23 82.3511 171.149 82.3511Z" fill="#FFE22E"/>
<path d="M137.877 95.0432C140.645 95.0432 142.888 92.7993 142.888 90.0312C142.888 87.2632 140.645 85.0193 137.877 85.0193C135.109 85.0193 132.865 87.2632 132.865 90.0312C132.865 92.7993 135.109 95.0432 137.877 95.0432Z" fill="#FE9898"/>
<path d="M121.996 90.9124C120.664 90.9106 119.387 90.3805 118.445 89.4385C117.503 88.4964 116.972 87.2192 116.971 85.8869C116.971 85.5276 117.113 85.1831 117.367 84.9291C117.621 84.675 117.966 84.5323 118.325 84.5323C118.684 84.5323 119.029 84.675 119.283 84.9291C119.537 85.1831 119.68 85.5276 119.68 85.8869C119.68 86.4922 119.92 87.0728 120.348 87.5008C120.776 87.9289 121.357 88.1694 121.962 88.1694C122.567 88.1694 123.148 87.9289 123.576 87.5008C124.004 87.0728 124.244 86.4922 124.244 85.8869C124.244 85.5231 124.389 85.1743 124.646 84.9171C124.903 84.6599 125.252 84.5154 125.616 84.5154C125.979 84.5154 126.328 84.6599 126.585 84.9171C126.843 85.1743 126.987 85.5231 126.987 85.8869C126.985 87.2133 126.46 88.4855 125.525 89.4266C124.591 90.3677 123.322 90.9017 121.996 90.9124V90.9124Z" fill="#343A40"/>
<path d="M153.764 90.9124C152.432 90.9106 151.155 90.3805 150.213 89.4385C149.271 88.4964 148.741 87.2192 148.739 85.8869C148.739 85.5231 148.884 85.1743 149.141 84.9171C149.398 84.6599 149.747 84.5154 150.111 84.5154C150.474 84.5154 150.823 84.6599 151.08 84.9171C151.338 85.1743 151.482 85.5231 151.482 85.8869C151.514 86.4716 151.769 87.0219 152.194 87.4246C152.619 87.8272 153.182 88.0517 153.768 88.0517C154.353 88.0517 154.917 87.8272 155.342 87.4246C155.767 87.0219 156.022 86.4716 156.053 85.8869C156.053 85.5231 156.198 85.1743 156.455 84.9171C156.712 84.6599 157.061 84.5154 157.425 84.5154C157.789 84.5154 158.137 84.6599 158.395 84.9171C158.652 85.1743 158.796 85.5231 158.796 85.8869C158.795 87.2204 158.264 88.4986 157.32 89.4409C156.377 90.3831 155.098 90.9124 153.764 90.9124V90.9124Z" fill="#343A40"/>
<path d="M38.4433 103.882L68.2439 86.6757C69.6487 85.8645 71.1996 85.338 72.8079 85.1263C74.4163 84.9145 76.0506 85.0217 77.6175 85.4415C79.1844 85.8614 80.6533 86.5859 81.9403 87.5735C83.2273 88.5611 84.3072 89.7925 85.1183 91.1975C85.7586 92.3067 86.1742 93.5311 86.3414 94.801C86.5086 96.0708 86.424 97.3611 86.0925 98.5983C85.7611 99.8354 85.1892 100.995 84.4096 102.011C83.6299 103.027 82.6578 103.88 81.5487 104.52L49.4959 123.027C48.3863 123.667 47.1617 124.082 45.8918 124.248C44.622 124.414 43.3318 124.329 42.095 123.996C40.8582 123.664 39.6989 123.091 38.6834 122.311C37.6679 121.531 36.816 120.558 36.1765 119.448L34.8762 117.196C33.5829 114.956 33.2325 112.294 33.9019 109.795C34.5713 107.297 36.2058 105.166 38.4458 103.873L38.4433 103.882Z" fill="#61C997"/>
<path d="M77.826 66.0519L70.2233 83.0252C69.2095 85.2885 70.2223 87.9452 72.4855 88.959L72.4917 88.9618C74.7548 89.9756 77.4113 88.9628 78.425 86.6995L86.0277 69.7262C87.0415 67.4629 86.0287 64.8062 83.7655 63.7924L83.7593 63.7896C81.4962 62.7758 78.8397 63.7886 77.826 66.0519Z" fill="#6FA7FF"/>
<path d="M101.217 69.1151L76.9194 78.4428C74.6043 79.3315 73.448 81.9289 74.3367 84.2442L74.3391 84.2505C75.2278 86.5658 77.825 87.7222 80.1401 86.8335L104.438 77.5057C106.753 76.617 107.909 74.0196 107.021 71.7043L107.018 71.698C106.13 69.3827 103.532 68.2263 101.217 69.1151Z" fill="#6F79FF"/>
<path d="M81.9095 75.9831L74.5175 77.5908C67.5805 79.0996 63.1801 85.9467 64.6888 92.8841L66.2964 100.277C67.8051 107.214 74.6517 111.615 81.5886 110.106L88.9806 108.498C95.9176 106.989 100.318 100.142 98.8094 93.205L97.2017 85.8125C95.693 78.875 88.8465 74.4742 81.9095 75.9831Z" fill="#A5B1B5"/>
<path d="M227.003 123.022L194.951 104.515C192.711 103.222 191.076 101.091 190.407 98.5929C189.737 96.0944 190.088 93.4322 191.381 91.1921C193.019 88.3547 195.717 86.2842 198.882 85.4362C202.046 84.5882 205.418 85.0321 208.256 86.6703L238.056 103.877C240.296 105.17 241.931 107.3 242.6 109.799C243.269 112.298 242.919 114.96 241.626 117.2L240.325 119.452C239.032 121.692 236.902 123.327 234.404 123.996C231.905 124.666 229.243 124.315 227.003 123.022Z" fill="#61C997"/>
<path d="M190.473 69.7231L198.076 86.6964C199.089 88.9597 201.746 89.9725 204.009 88.9587L204.015 88.9559C206.278 87.9421 207.291 85.2855 206.277 83.0222L198.675 66.0489C197.661 63.7856 195.004 62.7727 192.741 63.7865L192.735 63.7893C190.472 64.8031 189.459 67.4598 190.473 69.7231Z" fill="#6FA7FF"/>
<path d="M172.05 77.5032L196.348 86.831C198.663 87.7197 201.26 86.5633 202.149 84.248L202.152 84.2417C203.04 81.9264 201.884 79.329 199.569 78.4403L175.271 69.1126C172.956 68.2238 170.359 69.3802 169.47 71.6955L169.468 71.7018C168.579 74.0171 169.735 76.6145 172.05 77.5032Z" fill="#6F79FF"/>
<path d="M186.661 108.765L194.075 110.354C201.032 111.845 207.88 107.413 209.371 100.455L210.96 93.0413C212.451 86.0837 208.019 79.2348 201.062 77.7439L193.649 76.1552C186.692 74.6642 179.843 79.0959 178.352 86.0535L176.764 93.4675C175.273 100.425 179.704 107.274 186.661 108.765Z" fill="#A5B1B5"/>
<path d="M95.591 162.244C105.989 162.244 114.418 153.814 114.418 143.416C114.418 133.017 105.989 124.587 95.591 124.587C85.193 124.587 76.7637 133.017 76.7637 143.416C76.7637 153.814 85.193 162.244 95.591 162.244Z" fill="#D9E0E2"/>
<path d="M178.899 162.244C189.297 162.244 197.726 153.814 197.726 143.416C197.726 133.017 189.297 124.587 178.899 124.587C168.501 124.587 160.071 133.017 160.071 143.416C160.071 153.814 168.501 162.244 178.899 162.244Z" fill="#D9E0E2"/>
<path d="M119.409 135.952H156.481C160.738 135.952 164.953 136.79 168.885 138.419C172.818 140.048 176.391 142.436 179.401 145.446C182.41 148.456 184.798 152.029 186.427 155.962C188.056 159.895 188.894 164.11 188.894 168.367V210H86.9893V168.367C86.9893 164.109 87.8279 159.894 89.4572 155.961C91.0865 152.027 93.4746 148.454 96.4852 145.443C99.4957 142.433 103.07 140.046 107.003 138.417C110.936 136.789 115.152 135.951 119.409 135.952V135.952Z" fill="#343A40"/>
</svg>
