<svg width="278" height="210" viewBox="0 0 278 210" fill="none" xmlns="http://www.w3.org/2000/svg">
<path d="M93.4711 99.5167C91.8608 92.6165 84.9736 88.3303 78.0882 89.9433C71.2028 91.5562 66.9265 98.4575 68.5368 105.358L81.2577 159.868C82.868 166.768 89.7551 171.054 96.6405 169.441C103.526 167.828 107.802 160.927 106.192 154.027L93.4711 99.5167Z" fill="#FE9898"/>
<path d="M204.512 210V158.9C204.501 155.504 203.148 152.25 200.747 149.852C198.347 147.454 195.095 146.107 191.705 146.107V146.107C188.315 146.107 185.064 147.454 182.663 149.852C180.262 152.25 178.909 155.504 178.898 158.9V210H204.512Z" fill="#FE9898"/>
<path d="M191.565 176.241C201.194 176.241 209 168.42 209 158.772C209 149.125 201.194 141.304 191.565 141.304C181.936 141.304 174.13 149.125 174.13 158.772C174.13 168.42 181.936 176.241 191.565 176.241Z" fill="#D9E0E2"/>
<path d="M97.3482 176.241C106.977 176.241 114.783 168.42 114.783 158.772C114.783 149.125 106.977 141.304 97.3482 141.304C87.719 141.304 79.9131 149.125 79.9131 158.772C79.9131 168.42 87.719 176.241 97.3482 176.241Z" fill="#D9E0E2"/>
<path d="M158.674 121.322H130.341V151.615H158.674V121.322Z" fill="#FFDF4D"/>
<path d="M127.373 141.297H161.707C169.665 141.297 177.297 144.465 182.924 150.103C188.551 155.74 191.712 163.387 191.712 171.36V209.981H97.3164V171.379C97.3139 167.425 98.0898 163.51 99.5998 159.857C101.11 156.204 103.324 152.885 106.116 150.091C108.908 147.297 112.223 145.082 115.87 143.573C119.518 142.064 123.427 141.291 127.373 141.297V141.297Z" fill="#343A40"/>
<path d="M182.672 80.4883H104.032C96.8217 80.4883 90.9766 86.3446 90.9766 93.5687C90.9766 100.793 96.8217 106.649 104.032 106.649H182.672C189.882 106.649 195.727 100.793 195.727 93.5687C195.727 86.3446 189.882 80.4883 182.672 80.4883Z" fill="#6FA7FF"/>
<path d="M144.456 134.87C167.226 134.87 185.685 116.376 185.685 93.5625C185.685 70.7492 167.226 52.2554 144.456 52.2554C121.686 52.2554 103.228 70.7492 103.228 93.5625C103.228 116.376 121.686 134.87 144.456 134.87Z" fill="#D9E0E2"/>
<path d="M144.457 103.336C147.02 103.336 149.098 101.254 149.098 98.6857C149.098 96.1176 147.02 94.0356 144.457 94.0356C141.893 94.0356 139.815 96.1176 139.815 98.6857C139.815 101.254 141.893 103.336 144.457 103.336Z" fill="#FE9898"/>
<path d="M129.741 99.5047C128.507 99.5013 127.324 99.0081 126.452 98.133C125.579 97.2579 125.089 96.0721 125.087 94.8354C125.087 94.4961 125.221 94.1708 125.461 93.9308C125.7 93.6909 126.025 93.5562 126.364 93.5562C126.702 93.5562 127.027 93.6909 127.267 93.9308C127.506 94.1708 127.641 94.4961 127.641 94.8354C127.625 95.1237 127.668 95.4121 127.767 95.6831C127.866 95.9542 128.02 96.2021 128.218 96.4117C128.416 96.6214 128.654 96.7884 128.919 96.9025C129.184 97.0166 129.469 97.0755 129.757 97.0755C130.045 97.0755 130.33 97.0166 130.595 96.9025C130.859 96.7884 131.098 96.6214 131.296 96.4117C131.494 96.2021 131.648 95.9542 131.747 95.6831C131.846 95.4121 131.889 95.1237 131.873 94.8354C131.873 94.4961 132.008 94.1708 132.247 93.9308C132.487 93.6909 132.811 93.5562 133.15 93.5562C133.489 93.5562 133.813 93.6909 134.053 93.9308C134.292 94.1708 134.427 94.4961 134.427 94.8354C134.426 95.4505 134.304 96.0594 134.068 96.6272C133.832 97.195 133.486 97.7105 133.051 98.1443C132.616 98.578 132.099 98.9215 131.531 99.1549C130.963 99.3884 130.355 99.5072 129.741 99.5047Z" fill="#343A40"/>
<path d="M159.172 99.5047C157.937 99.5013 156.754 99.0081 155.882 98.133C155.01 97.2579 154.519 96.0721 154.518 94.8354C154.518 94.4961 154.652 94.1708 154.892 93.9308C155.131 93.6909 155.456 93.5562 155.794 93.5562C156.133 93.5562 156.458 93.6909 156.697 93.9308C156.937 94.1708 157.071 94.4961 157.071 94.8354C157.055 95.1237 157.098 95.4121 157.198 95.6831C157.297 95.9542 157.45 96.2021 157.648 96.4117C157.846 96.6214 158.085 96.7884 158.35 96.9025C158.614 97.0166 158.899 97.0755 159.188 97.0755C159.476 97.0755 159.761 97.0166 160.025 96.9025C160.29 96.7884 160.529 96.6214 160.727 96.4117C160.925 96.2021 161.078 95.9542 161.177 95.6831C161.277 95.4121 161.32 95.1237 161.304 94.8354C161.304 94.4961 161.438 94.1708 161.678 93.9308C161.917 93.6909 162.242 93.5562 162.581 93.5562C162.919 93.5562 163.244 93.6909 163.484 93.9308C163.723 94.1708 163.858 94.4961 163.858 94.8354C163.857 95.4505 163.735 96.0594 163.499 96.6272C163.263 97.195 162.917 97.7105 162.482 98.1443C162.046 98.578 161.53 98.9215 160.962 99.1549C160.394 99.3884 159.786 99.5072 159.172 99.5047V99.5047Z" fill="#343A40"/>
<path d="M101.268 57.592L71.929 83.2886C67.1508 87.4736 66.6635 94.747 70.8406 99.5343C75.0177 104.322 82.2773 104.81 87.0555 100.625L116.394 74.9281C121.172 70.7431 121.659 63.4697 117.482 58.6824C113.305 53.8952 106.046 53.407 101.268 57.592Z" fill="#72D3A2"/>
<path d="M151.042 50.2688L127.123 47.3136C124.842 47.0317 122.764 48.6563 122.483 50.9422C122.201 53.2282 123.823 55.3098 126.104 55.5917L150.023 58.5469C152.305 58.8287 154.383 57.2042 154.664 54.9183C154.945 52.6323 153.324 50.5507 151.042 50.2688Z" fill="#6FA7FF"/>
<path d="M151.252 43.3285L127.174 44.3691C124.877 44.4684 123.096 46.4142 123.195 48.7153C123.294 51.0164 125.236 52.8013 127.533 52.7021L151.611 51.6615C153.907 51.5622 155.689 49.6164 155.59 47.3153C155.491 45.0142 153.549 43.2292 151.252 43.3285Z" fill="#6F79FF"/>
<path d="M142.138 40.1065L118.761 46.3845C116.531 46.9833 115.208 49.2799 115.806 51.514C116.404 53.7481 118.696 55.0738 120.926 54.475L144.303 48.197C146.533 47.5982 147.856 45.3016 147.258 43.0675C146.66 40.8333 144.368 39.5077 142.138 40.1065Z" fill="#6FA7FF"/>
<path d="M121.969 43.1008L106.597 53.4617C103.78 55.3606 103.032 59.1881 104.928 62.0107L109.774 69.2283C111.669 72.0509 115.49 72.7998 118.307 70.9009L133.679 60.54C136.496 58.6412 137.243 54.8137 135.348 51.9911L130.502 44.7734C128.607 41.9508 124.786 41.202 121.969 43.1008Z" fill="#A5B1B5"/>
</svg>
