<svg width="278" height="210" viewBox="0 0 278 210" fill="none" xmlns="http://www.w3.org/2000/svg">
<g clip-path="url(#clip0_403_6196)">
<path d="M154.414 146.323C152.661 153.754 157.255 161.2 164.675 162.955C172.095 164.71 179.53 160.11 181.283 152.679L198.597 79.2699C200.349 71.8392 195.755 64.3927 188.335 62.6375C180.916 60.8824 173.48 65.4833 171.728 72.9139L154.414 146.323Z" fill="#FE9898"/>
<path d="M176.998 102.115L192.633 73.0962C195.699 67.404 193.578 60.2997 187.894 57.2284L187.483 57.0064C181.8 53.9351 174.706 56.0597 171.639 61.7519L156.005 90.7704C152.938 96.4626 155.059 103.567 160.743 106.638L161.154 106.86C166.838 109.932 173.931 107.807 176.998 102.115Z" fill="#61C997"/>
<path d="M156.787 141.107L172.458 120.34C173.952 118.361 173.56 115.545 171.585 114.05L171.579 114.046C169.604 112.55 166.791 112.942 165.298 114.921L149.627 135.688C148.134 137.666 148.525 140.483 150.501 141.978L150.506 141.982C152.482 143.477 155.294 143.086 156.787 141.107Z" fill="#6FA7FF"/>
<path d="M136.614 107.816L155.003 105.208C157.455 104.86 159.161 102.587 158.814 100.132L158.813 100.125C158.465 97.6693 156.196 95.9604 153.744 96.3082L135.355 98.9161C132.903 99.2638 131.197 101.536 131.544 103.992L131.545 103.999C131.892 106.455 134.162 108.163 136.614 107.816Z" fill="#6F79FF"/>
<path d="M146.198 136.597L161.87 115.83C163.363 113.852 162.972 111.035 160.996 109.54L160.99 109.536C159.015 108.04 156.203 108.432 154.709 110.411L139.038 131.178C137.545 133.157 137.936 135.973 139.912 137.468L139.917 137.472C141.893 138.968 144.705 138.576 146.198 136.597Z" fill="#6F79FF"/>
<path d="M138.97 127.624L154.641 106.857C156.134 104.878 155.743 102.062 153.767 100.567L153.762 100.563C151.786 99.0673 148.974 99.4591 147.481 101.438L131.81 122.205C130.316 124.183 130.708 127 132.683 128.495L132.689 128.499C134.665 129.995 137.477 129.603 138.97 127.624Z" fill="#6FA7FF"/>
<path d="M172.98 121.351L176.567 114.693C179.934 108.444 177.605 100.645 171.366 97.2737L164.717 93.6809C158.478 90.3094 150.691 92.6417 147.324 98.8903L143.737 105.549C140.37 111.797 142.699 119.596 148.938 122.968L155.587 126.56C161.826 129.932 169.613 127.6 172.98 121.351Z" fill="#A5B1B5"/>
<path d="M173.412 51.5781H75.7278C69.2507 51.5781 64 56.8366 64 63.3233V65.037C64 71.5236 69.2507 76.7821 75.7278 76.7821H173.412C179.889 76.7821 185.14 71.5236 185.14 65.037V63.3233C185.14 56.8366 179.889 51.5781 173.412 51.5781Z" fill="#61C997"/>
<path d="M208.515 48.9035L189.379 50.5733C187.087 50.7734 185.39 52.7966 185.59 55.0922C185.79 57.3879 187.81 59.0868 190.102 58.8867L209.238 57.2168C211.53 57.0168 213.227 54.9936 213.027 52.6979C212.827 50.4023 210.807 48.7034 208.515 48.9035Z" fill="#6F79FF"/>
<path d="M187.369 44.838L177.765 61.4974C176.614 63.493 177.297 66.0449 179.29 67.1971C181.282 68.3492 183.83 67.6655 184.981 65.6698L194.585 49.0105C195.735 47.0148 195.053 44.463 193.06 43.3108C191.067 42.1586 188.519 42.8424 187.369 44.838Z" fill="#6F79FF"/>
<path d="M210.473 57.756L191.337 59.4259C189.045 59.6259 187.348 61.6491 187.548 63.9448C187.748 66.2405 189.768 67.9393 192.06 67.7393L211.196 66.0694C213.488 65.8693 215.185 63.8462 214.985 61.5505C214.785 59.2548 212.765 57.5559 210.473 57.756Z" fill="#6FA7FF"/>
<path d="M208.517 66.7789L189.381 68.4488C187.089 68.6489 185.392 70.672 185.592 72.9677C185.792 75.2634 187.812 76.9623 190.104 76.7622L209.24 75.0923C211.532 74.8923 213.229 72.8691 213.029 70.5734C212.829 68.2778 210.809 66.5789 208.517 66.7789Z" fill="#6F79FF"/>
<path d="M193.262 47.5347H185.707C178.617 47.5347 172.87 53.2905 172.87 60.3907V67.9566C172.87 75.0568 178.617 80.8126 185.707 80.8126H193.262C200.351 80.8126 206.099 75.0568 206.099 67.9566V60.3907C206.099 53.2905 200.351 47.5347 193.262 47.5347Z" fill="#A5B1B5"/>
<path d="M91.8816 66.704C90.1589 59.2663 82.7418 54.6356 75.3152 56.3609C67.8886 58.0862 63.2647 65.5143 64.9875 72.9519L82.5695 148.858C84.2923 156.296 91.7093 160.926 99.1359 159.201C106.563 157.476 111.186 150.048 109.464 142.61L91.8816 66.704Z" fill="#FE9898"/>
<path d="M147.013 113.427H116.463V146.075H147.013V113.427Z" fill="#FFDF4D"/>
<path d="M172.884 69.4194H88.0981C80.3249 69.4194 74.0234 75.7302 74.0234 83.515C74.0234 91.2997 80.3249 97.6105 88.0981 97.6105H172.884C180.658 97.6105 186.959 91.2997 186.959 83.515C186.959 75.7302 180.658 69.4194 172.884 69.4194Z" fill="#6FA7FF"/>
<path d="M131.675 128.03C156.223 128.03 176.124 108.1 176.124 83.5151C176.124 58.9301 156.223 39 131.675 39C107.126 39 87.2256 58.9301 87.2256 83.5151C87.2256 108.1 107.126 128.03 131.675 128.03Z" fill="#D9E0E2"/>
<path d="M131.675 94.0476C134.439 94.0476 136.68 91.8035 136.68 89.0353C136.68 86.2671 134.439 84.0229 131.675 84.0229C128.911 84.0229 126.67 86.2671 126.67 89.0353C126.67 91.8035 128.911 94.0476 131.675 94.0476Z" fill="#FE9898"/>
<path d="M115.808 89.9161C114.477 89.9143 113.202 89.3842 112.261 88.442C111.32 87.4999 110.791 86.2226 110.789 84.8902C110.789 84.5264 110.933 84.1775 111.19 83.9203C111.447 83.6631 111.795 83.5186 112.159 83.5186C112.522 83.5186 112.87 83.6631 113.127 83.9203C113.384 84.1775 113.528 84.5264 113.528 84.8902C113.56 85.475 113.814 86.0253 114.239 86.428C114.664 86.8307 115.226 87.0551 115.811 87.0551C116.396 87.0551 116.958 86.8307 117.383 86.428C117.807 86.0253 118.062 85.475 118.094 84.8902C118.094 84.5264 118.238 84.1775 118.495 83.9203C118.752 83.6631 119.1 83.5186 119.463 83.5186C119.826 83.5186 120.175 83.6631 120.432 83.9203C120.688 84.1775 120.833 84.5264 120.833 84.8902C120.831 86.2238 120.301 87.5021 119.358 88.4444C118.416 89.3868 117.139 89.9161 115.808 89.9161Z" fill="#343A40"/>
<path d="M147.542 89.9161C146.211 89.9143 144.936 89.3842 143.995 88.442C143.055 87.4999 142.525 86.2226 142.523 84.8902C142.523 84.5264 142.668 84.1775 142.925 83.9203C143.181 83.6631 143.53 83.5186 143.893 83.5186C144.256 83.5186 144.605 83.6631 144.861 83.9203C145.118 84.1775 145.263 84.5264 145.263 84.8902C145.263 85.4956 145.503 86.0762 145.93 86.5043C146.358 86.9323 146.937 87.1728 147.542 87.1728C148.146 87.1728 148.726 86.9323 149.154 86.5043C149.581 86.0762 149.821 85.4956 149.821 84.8902C149.821 84.5264 149.965 84.1775 150.222 83.9203C150.479 83.6631 150.828 83.5186 151.191 83.5186C151.554 83.5186 151.902 83.6631 152.159 83.9203C152.416 84.1775 152.56 84.5264 152.56 84.8902C152.559 86.2226 152.029 87.4999 151.089 88.442C150.148 89.3842 148.872 89.9143 147.542 89.9161V89.9161Z" fill="#343A40"/>
<path d="M97.6348 164.092C107.138 164.092 114.841 156.377 114.841 146.861C114.841 137.344 107.138 129.629 97.6348 129.629C88.1322 129.629 80.4287 137.344 80.4287 146.861C80.4287 156.377 88.1322 164.092 97.6348 164.092Z" fill="#D9E0E2"/>
<path d="M171.504 164.092C181.007 164.092 188.71 156.377 188.71 146.861C188.71 137.344 181.007 129.629 171.504 129.629C162.001 129.629 154.298 137.344 154.298 146.861C154.298 156.377 162.001 164.092 171.504 164.092Z" fill="#D9E0E2"/>
<path d="M116.653 134.959H146.818C154.964 134.959 162.775 138.2 168.535 143.968C174.295 149.737 177.531 157.56 177.531 165.718V209.014H85.9473V165.731C85.9455 161.691 86.7384 157.691 88.2806 153.958C89.8228 150.225 92.0842 146.833 94.9356 143.976C97.787 141.118 101.173 138.851 104.899 137.304C108.625 135.757 112.619 134.96 116.653 134.959V134.959Z" fill="#343A40"/>
</g>
<defs>
<clipPath id="clip0_403_6196">
<rect width="279.004" height="209.005" fill="white"/>
</clipPath>
</defs>
</svg>
