<svg width="278" height="211" viewBox="0 0 278 211" fill="none" xmlns="http://www.w3.org/2000/svg">
<path d="M48.599 166.453C41.837 169.802 39.0705 177.998 42.4198 184.759C45.7692 191.521 53.9661 194.287 60.7281 190.938L114.16 164.475C120.922 161.126 123.689 152.93 120.339 146.169C116.99 139.407 108.793 136.641 102.031 139.99L48.599 166.453Z" fill="#FE9898"/>
<path d="M100.761 167.327C110.167 167.327 117.792 159.703 117.792 150.298C117.792 140.894 110.167 133.27 100.761 133.27C91.3554 133.27 83.7305 140.894 83.7305 150.298C83.7305 159.703 91.3554 167.327 100.761 167.327Z" fill="#D9E0E2"/>
<path d="M175.972 140.005C169.21 136.656 161.013 139.422 157.664 146.184C154.315 152.945 157.081 161.141 163.843 164.49L217.275 190.953C224.037 194.302 232.234 191.536 235.584 184.775C238.933 178.013 236.167 169.817 229.405 166.468L175.972 140.005Z" fill="#FE9898"/>
<path d="M176.254 167.327C185.66 167.327 193.285 159.703 193.285 150.298C193.285 140.894 185.66 133.27 176.254 133.27C166.849 133.27 159.224 140.894 159.224 150.298C159.224 159.703 166.849 167.327 176.254 167.327Z" fill="#D9E0E2"/>
<path d="M155.354 115.551H125.115V147.815H155.354V115.551Z" fill="#FFDF4D"/>
<path d="M125.31 136.831H155.167C163.229 136.831 170.962 140.033 176.663 145.733C182.364 151.434 185.566 159.165 185.566 167.227V210.013H94.9102V167.24C94.9084 163.247 95.6934 159.293 97.2203 155.604C98.7473 151.915 100.986 148.562 103.809 145.738C106.632 142.914 109.984 140.674 113.673 139.146C117.362 137.617 121.316 136.831 125.31 136.831Z" fill="#343A40"/>
<path d="M180.961 72.0615H97.0395C89.3456 72.0615 83.1084 78.2981 83.1084 85.9912C83.1084 93.6844 89.3456 99.921 97.0395 99.921H180.961C188.655 99.921 194.892 93.6844 194.892 85.9912C194.892 78.2981 188.655 72.0615 180.961 72.0615Z" fill="#6FA7FF"/>
<path d="M140.179 129.983C164.477 129.983 184.174 110.287 184.174 85.9914C184.174 61.6956 164.477 42 140.179 42C115.88 42 96.1826 61.6956 96.1826 85.9914C96.1826 110.287 115.88 129.983 140.179 129.983Z" fill="#D9E0E2"/>
<path d="M140.178 96.3999C142.914 96.3999 145.132 94.1822 145.132 91.4465C145.132 88.7109 142.914 86.4932 140.178 86.4932C137.443 86.4932 135.225 88.7109 135.225 91.4465C135.225 94.1822 137.443 96.3999 140.178 96.3999Z" fill="#FE9898"/>
<path d="M125.023 92.1297C127.108 92.1297 128.798 90.4394 128.798 88.3544C128.798 86.2694 127.108 84.5791 125.023 84.5791C122.937 84.5791 121.247 86.2694 121.247 88.3544C121.247 90.4394 122.937 92.1297 125.023 92.1297Z" fill="#343A40"/>
<path d="M155.449 92.1297C157.534 92.1297 159.224 90.4394 159.224 88.3544C159.224 86.2694 157.534 84.5791 155.449 84.5791C153.363 84.5791 151.673 86.2694 151.673 88.3544C151.673 90.4394 153.363 92.1297 155.449 92.1297Z" fill="#343A40"/>
<path d="M81.8629 171.431H51.7111C45.7955 171.431 41 176.226 41 182.141V182.562C41 188.477 45.7955 193.272 51.7111 193.272H81.8629C87.7785 193.272 92.574 188.477 92.574 182.562V182.141C92.574 176.226 87.7785 171.431 81.8629 171.431Z" fill="#61C997"/>
<path d="M125.154 185.165L99.7249 189.069C97.302 189.441 95.6395 191.707 96.0115 194.129L96.0126 194.136C96.3846 196.558 98.6503 198.221 101.073 197.849L126.502 193.944C128.925 193.572 130.587 191.307 130.215 188.884L130.214 188.878C129.842 186.455 127.576 184.793 125.154 185.165Z" fill="#6FA7FF"/>
<path d="M99.8405 155.457L88.9317 170.252C87.4771 172.224 87.8973 175.003 89.8703 176.457L89.8757 176.461C91.8487 177.916 94.6274 177.496 96.082 175.523L106.991 160.728C108.445 158.755 108.025 155.977 106.052 154.522L106.047 154.518C104.074 153.064 101.295 153.484 99.8405 155.457Z" fill="#6F79FF"/>
<path d="M126.205 173.831L100.777 177.735C98.3538 178.107 96.6913 180.373 97.0633 182.795L97.0643 182.802C97.4364 185.224 99.7021 186.887 102.125 186.515L127.554 182.61C129.977 182.238 131.639 179.973 131.267 177.55L131.266 177.544C130.894 175.121 128.628 173.459 126.205 173.831Z" fill="#6F79FF"/>
<path d="M121.701 163.83L96.2319 167.689C93.8052 168.056 92.136 170.322 92.5037 172.748L92.5047 172.755C92.8723 175.181 95.1377 176.85 97.5645 176.483L123.034 172.624C125.461 172.256 127.13 169.991 126.762 167.565L126.761 167.558C126.394 165.132 124.128 163.463 121.701 163.83Z" fill="#6FA7FF"/>
<path d="M101.705 165.908H94.2275C87.2102 165.908 81.5215 171.596 81.5215 178.613V186.09C81.5215 193.107 87.2102 198.795 94.2275 198.795H101.705C108.723 198.795 114.411 193.107 114.411 186.09V178.613C114.411 171.596 108.723 165.908 101.705 165.908Z" fill="#A5B1B5"/>
<path d="M196.137 193.252H226.289C232.204 193.252 237 188.457 237 182.542V182.121C237 176.206 232.204 171.411 226.289 171.411H196.137C190.222 171.411 185.426 176.206 185.426 182.121V182.542C185.426 188.457 190.222 193.252 196.137 193.252Z" fill="#61C997"/>
<path d="M151.495 193.926L176.924 197.831C179.346 198.203 181.612 196.54 181.984 194.118L181.985 194.111C182.357 191.689 180.695 189.423 178.272 189.051L152.843 185.147C150.42 184.775 148.155 186.437 147.783 188.86L147.782 188.866C147.409 191.289 149.072 193.554 151.495 193.926Z" fill="#6FA7FF"/>
<path d="M171.014 160.71L181.923 175.505C183.377 177.477 186.156 177.898 188.129 176.443L188.134 176.439C190.107 174.985 190.528 172.206 189.073 170.233L178.164 155.439C176.71 153.466 173.931 153.046 171.958 154.5L171.953 154.504C169.98 155.959 169.559 158.737 171.014 160.71Z" fill="#6F79FF"/>
<path d="M150.445 182.583L175.874 186.487C178.297 186.859 180.562 185.197 180.934 182.774L180.935 182.767C181.307 180.345 179.645 178.079 177.222 177.707L151.793 173.803C149.37 173.431 147.105 175.093 146.733 177.516L146.732 177.523C146.36 179.945 148.022 182.211 150.445 182.583Z" fill="#6F79FF"/>
<path d="M154.852 172.086L180.281 175.99C182.704 176.362 184.97 174.7 185.342 172.277L185.343 172.27C185.715 169.848 184.052 167.582 181.629 167.21L156.201 163.306C153.778 162.934 151.512 164.596 151.14 167.019L151.139 167.025C150.767 169.448 152.429 171.714 154.852 172.086Z" fill="#6FA7FF"/>
<path d="M176.295 198.774H183.772C190.79 198.774 196.479 193.086 196.479 186.07V178.593C196.479 171.576 190.79 165.888 183.772 165.888H176.295C169.277 165.888 163.589 171.576 163.589 178.593V186.07C163.589 193.086 169.277 198.774 176.295 198.774Z" fill="#A5B1B5"/>
</svg>
